<?xml version="1.0" encoding="UTF-8"?>
<svg id="Layer_2" data-name="Layer 2" xmlns="http://www.w3.org/2000/svg" viewBox="0 0 568.3 172.6">
  <defs>
    <style>
      .cls-1 {
        fill: none;
      }

      .cls-1, .cls-2, .cls-3, .cls-4 {
        stroke-width: 0px;
      }

      .cls-2 {
        fill: #073a3b;
      }

      .cls-3 {
        fill: #fff;
      }

      .cls-4 {
        fill: #ef786e;
      }
    </style>
  </defs>
  <g id="Camada_1" data-name="Camada 1">
    <g>
      <g>
        <g>
          <path class="cls-2" d="M241.52,78.23l-12.7-27.96v27.64h-8.68v-44.68h10.02l14.04,30.9,13.98-30.9h10.02v44.68h-8.68v-27.64l-12.7,27.96h-5.3Z"/>
          <path class="cls-2" d="M275.92,55.57c0-13.02,10.28-22.98,23.49-22.98s23.62,9.96,23.62,22.98-10.34,22.98-23.62,22.98-23.49-9.96-23.49-22.98ZM313.51,55.57c0-7.98-5.94-14.24-14.11-14.24s-14.04,6.26-14.04,14.24,5.94,14.24,14.04,14.24,14.11-6.26,14.11-14.24Z"/>
          <path class="cls-2" d="M361.13,78.23l-21.7-30.07v29.75h-8.68v-44.68h8.49l20.43,28.34v-28.34h8.68v45h-7.21Z"/>
          <path class="cls-2" d="M375.61,67.51l7.28-4.21c1.15,3.32,4.34,6.57,9.51,6.57,4.6,0,7.53-1.92,7.53-5.3,0-3-2.23-4.72-5.68-5.43l-4.34-.77c-6.32-1.21-11.75-5.23-11.75-12.96,0-5.94,4.98-12.83,15.19-12.83,7.09,0,12.06,3.64,14.43,8.49l-7.34,4.6c-.83-2.55-3.38-4.92-7.09-4.92s-6,2.11-6,4.53c0,2.55,1.85,4.09,4.72,4.66l4.53.89c8.49,1.72,12.77,6.77,12.77,13.72s-5.94,13.98-16.98,13.98c-9.96,0-14.87-6.13-16.79-11.04Z"/>
          <path class="cls-2" d="M425.39,77.92v-36.45h-13.34v-8.23h35.81v8.23h-13.28v36.45h-9.19Z"/>
          <path class="cls-2" d="M453.67,77.92v-44.68h28.79v8.04h-19.98v9.64h18.13v7.98h-18.13v10.98h19.98v8.04h-28.79Z"/>
          <path class="cls-2" d="M525.66,77.92h-11.36l-13.85-15.96h-.13v15.96h-8.94v-44.68h17.11c8.62,0,15.13,6.13,15.13,14.17,0,7.15-4.92,13.47-12.96,14.43l15,16.09ZM500.32,41.21v12.64h6.77c4.02,0,7.02-2.36,7.02-6.45s-3-6.19-7.02-6.19h-6.77Z"/>
          <path class="cls-2" d="M558.92,77.92l-2.87-8.36h-17.68l-2.87,8.36h-9.45l16.15-44.68h10.41l15.7,44.68h-9.38ZM541.17,61.38h12.13l-6.06-17.75-6.06,17.75Z"/>
        </g>
        <g>
          <path class="cls-2" d="M221.67,139.37v-44.68h15.13c7.15,0,12.96,5.04,12.96,12.06,0,4.98-3.13,8.17-5.23,9.32,3.7,1.4,6.83,5.11,6.83,10.85,0,7.66-5.94,12.45-13.72,12.45h-15.96ZM226.45,114.6h9.7c4.92,0,8.55-2.55,8.55-7.85,0-4.66-3.64-7.66-8.55-7.66h-9.7v15.51ZM226.45,135.09h10.98c5.68,0,8.87-3.64,8.87-8.17s-3.19-8.11-8.87-8.11h-10.98v16.28Z"/>
          <path class="cls-2" d="M257.73,117.03c0-12.77,10.02-22.98,22.92-22.98s22.98,10.21,22.98,22.98-10.09,22.98-22.98,22.98-22.92-10.21-22.92-22.98ZM298.52,117.03c0-10.15-7.6-18.26-17.87-18.26s-17.81,8.11-17.81,18.26,7.47,18.26,17.81,18.26,17.87-8.11,17.87-18.26Z"/>
          <path class="cls-2" d="M310,117.03c0-12.77,10.02-22.98,22.92-22.98s22.98,10.21,22.98,22.98-10.09,22.98-22.98,22.98-22.92-10.21-22.92-22.98ZM350.79,117.03c0-10.15-7.6-18.26-17.87-18.26s-17.81,8.11-17.81,18.26,7.47,18.26,17.81,18.26,17.87-8.11,17.87-18.26Z"/>
          <path class="cls-2" d="M398.14,139.37h-6.45l-21.13-22.34v22.34h-4.79v-44.68h4.79v20.11l20.75-20.11h6.45l-21.77,21.19,22.15,23.49Z"/>
          <path class="cls-2" d="M402.6,130.18l4.09-2.36c1.15,2.74,5.17,7.66,12,7.66,5.94,0,10.6-3.19,10.6-8.36,0-4.02-2.68-7.02-8.23-8.11l-4.47-.89c-6.19-1.21-11.23-5.3-11.23-12.26,0-5.75,4.6-11.81,13.66-11.81,6.19,0,11.17,3.45,13.21,8.43l-3.96,2.43c-1.15-3.64-5.23-6.38-9.26-6.38-5.75,0-8.81,3.57-8.81,7.34,0,4.21,3,6.7,7.28,7.53l4.53.89c8.49,1.66,12.19,7.21,12.19,12.83,0,6.06-5.23,12.89-15.51,12.89-9.19,0-14.36-6-16.09-9.83Z"/>
        </g>
      </g>
      <path class="cls-1" d="M157.24,106.99c-1.34-1.19-16.82-14.5-27.47-11.36-11.02,3.25-9.43,18.53-.98,21.77,7.92,3.04,16.06,3.36,19.75,4.09,3.68.73,9.77,1.71,12.94-.51,3.17-2.22,2.39-8.11-4.24-13.99Z"/>
      <path class="cls-1" d="M143.77,65.5c4.84-.75,12.01-1.49,13.69-7.93.66-2.52-.72-5.26-2.53-7.04-1.81-1.79-4.14-2.79-6.38-3.87-14.18-6.87-29.14-5.74-35.9-4.74-1.1.16-6.58.75-7.73,4.8-.93,3.26,2.11,9.52,3.61,11.35,3.37,4.09,8.07,6.86,13.06,7.9,7.35,1.55,14.93.66,22.17-.46Z"/>
      <path class="cls-2" d="M108.25,140.11c-2.94-8.21-4.87-16.7-7.1-25.12-2.86-10.82-6.13-21.54-9.92-32.07-3.44-9.56-7.04-18.31-11.45-27.4-3.9-8.05-8.23-15.89-13.15-23.37-1.15-1.75-2.34-3.48-3.56-5.19-.59-.83-1.2-1.66-1.81-2.47-.27-.37-.55-.73-.83-1.1-.03-.04-.3-.39-.33-.43-.06-.08-.12-.16-.18-.24-2.34-3-4.81-5.9-7.42-8.66-2.43-2.58-4.99-5.04-7.68-7.34-.65-.56-1.31-1.1-1.98-1.64-.24-.19-.49-.39-.73-.58.23.18-.58-.44-.72-.55-1.62-1.21-3.29-2.36-4.96-3.51-.22-.15-.45-.3-.67-.45H0v37.39c4.66-3.62,10.88-5.21,13.79-2.92,6.5,5.11,3.09,15.01.03,20.44C7.9,65.45,0,89.16,0,89.16v83.44s8.75,0,11.79,0c2.9-32.24,7.06-51.09,10.2-61.69,3.14-10.6,10.74-28.57,17.85-39.02,2.65-3.89,8.34-9.59,15.5-7.95s6.67,8.62,6.73,10.82c.23,9.72-3.93,19.29-8.55,27.85-10.56,19.59-24.78,50.82-25.3,69.99,0,0,22.16,0,28.69,0,2.62-17.61,2.94-23.84,10.45-37.57,2.88-5.27,8.78-12.14,16.17-9.43,7.39,2.71,7.25,12.81,2.52,21.55-4.73,8.74-6.75,13.57-10.3,25.46h51.32c-1.55-1.81-3.05-3.65-4.48-5.55-6.17-8.18-10.89-17.31-14.34-26.94Z"/>
      <path class="cls-4" d="M172.6,0h-45.61s-18.06,9.27-35.3,9.77c-10.25,0-8.77-8.9-8.11-9.77h-37.17c5.05,3.99,9.67,8.49,13.88,13.37,11.39,13.18,20.16,28.48,27.38,44.27,9.09,19.89,15.87,40.79,21.13,62,1.98,7.97,4.17,15.93,7.29,23.53.19.45.24.58.56,1.31.24.55.48,1.09.73,1.64.46,1.01.95,2.02,1.45,3.02,1.16,2.32,2.42,4.59,3.76,6.81,2.91,4.78,6.23,9.28,9.94,13.47.95,1.07,1.91,2.13,2.87,3.19h37.2V0ZM108.54,58.06c-1.5-1.82-4.54-8.09-3.61-11.35,1.15-4.05,6.63-4.64,7.73-4.8,6.77-1,21.72-2.13,35.9,4.74,2.24,1.08,4.57,2.09,6.38,3.87,1.81,1.79,3.19,4.52,2.53,7.04-1.69,6.44-8.85,7.18-13.69,7.93-7.24,1.12-14.82,2.01-22.17.46-4.99-1.05-9.69-3.81-13.06-7.9ZM161.47,120.98c-3.17,2.22-9.26,1.24-12.94.51-3.68-.73-11.83-1.05-19.75-4.09-8.45-3.24-10.04-18.52.98-21.77,10.65-3.14,26.13,10.17,27.47,11.36,6.63,5.88,7.4,11.77,4.24,13.99Z"/>
      <path class="cls-3" d="M42.11,4.52s-.09-.07-.17-.14c.06.05.12.09.17.14Z"/>
      <path class="cls-3" d="M60.11,22.97c.05.06.1.13.15.19-.13-.17-.16-.21-.15-.19Z"/>
    </g>
  </g>
</svg>